<?xml version="1.0" encoding="utf-8"?>
<!-- Generator: Adobe Illustrator 27.0.0, SVG Export Plug-In . SVG Version: 6.00 Build 0)  -->
<svg version="1.1" id="Layer_1" xmlns="http://www.w3.org/2000/svg" xmlns:xlink="http://www.w3.org/1999/xlink" x="0px" y="0px"
	 viewBox="0 0 264 280" style="enable-background:new 0 0 264 280;" xml:space="preserve">
<style type="text/css">
	.st0{fill:#DDDDDD;}
	.st1{clip-path:url(#SVGID_00000177444812702009026150000013582935846379204534_);}
	.st2{fill:#FACA95;}
	.st3{fill:#506286;}
	.st4{fill:#101010;}
	.st5{opacity:0.3;}
	.st6{fill:#FFFFFF;}
	.st7{fill:url(#SVGID_00000098197166482179004010000000928893561675161271_);}
	.st8{fill:#CFE0EB;}
	.st9{filter:url(#Adobe_OpacityMaskFilter);}
	.st10{filter:url(#Adobe_OpacityMaskFilter_00000137105797217185174810000017091867161695678134_);}
	
		.st11{mask:url(#SVGID_00000024717223883832604630000008778144300906926749_);fill:url(#SVGID_00000022539830080273630990000014247107320584247743_);}
	.st12{fill:url(#SVGID_00000147916148676054004240000011965032027169755285_);}
	.st13{filter:url(#Adobe_OpacityMaskFilter_00000135681733191208955050000010987475475649091995_);}
	.st14{filter:url(#Adobe_OpacityMaskFilter_00000014632364553698626140000018026942229691574917_);}
	
		.st15{mask:url(#SVGID_00000118383595305881265890000013108504982341680016_);fill:url(#SVGID_00000172438986638304136860000008529165176983362980_);}
	.st16{fill:url(#SVGID_00000058571234670776454200000016849035046872141980_);}
	.st17{fill:url(#SVGID_00000005960874434757971230000010270218538489131683_);}
	.st18{fill:url(#SVGID_00000148636059139122958250000007435422107404957327_);}
	.st19{fill:url(#SVGID_00000114068290256613092000000005703620166358154395_);}
	.st20{fill:#99D4E3;}
	.st21{fill:#6CC6E2;}
	.st22{fill:#4F8EA1;}
	.st23{fill:#BAE1EE;}
	.st24{fill:#91D2E8;}
	.st25{fill:#5BA4BA;}
	.st26{opacity:0.5;fill:#BAE1EE;}
	.st27{fill:#81B3C5;}
</style>
<circle class="st0" cx="133" cy="138.5" r="131"/>
<g>
	<defs>
		<circle id="SVGID_1_" cx="133" cy="138.6" r="131"/>
	</defs>
	<clipPath id="SVGID_00000102506653952524317730000002391128127391314328_">
		<use xlink:href="#SVGID_1_"  style="overflow:visible;"/>
	</clipPath>
	<g style="clip-path:url(#SVGID_00000102506653952524317730000002391128127391314328_);">
		<g>
			<polygon class="st2" points="166.5,208.7 98.6,208.7 105.6,169 159.6,169 			"/>
		</g>
		<polygon class="st2" points="166.5,208.7 132.3,208.7 98.6,208.7 98.3,211 132.3,243.8 166.8,211 		"/>
		<polygon class="st3" points="207.9,268.1 213.2,218 166.5,208.7 132.3,224.9 98.6,208.7 51.3,218 56.6,268.1 		"/>
		<g>
			<g>
				<polygon class="st2" points="240.8,268.1 239.5,231.9 213.2,218 207.5,268.1 				"/>
			</g>
		</g>
		<polygon class="st2" points="57,268.1 51.3,218 25.1,231.9 22.8,268.1 		"/>
		<polygon class="st3" points="240.8,268.1 239.5,231.9 213.2,218 207.5,268.1 		"/>
		<polygon class="st3" points="57,268.1 51.3,218 25.1,231.9 22.8,268.1 		"/>
		<g>
			<path class="st2" d="M182.5,127.4c0,0,1.6,0,2.1,0c2.1,0,3.6-3.7,4.2-5.5c1.4-4.1,2-7.3,2.2-9.1c0.3-2.2-0.4-6.1-3.3-6.1
				c-3.3,0-5.2,3.4-5.2,3.4V127.4z"/>
			<path class="st2" d="M82,127.4c0,0-1.6,0-2.1,0c-2.1,0-3.6-3.7-4.2-5.5c-1.4-4.1-2-7.3-2.2-9.1c-0.3-2.2,0.4-6.1,3.3-6.1
				c3.3,0,5.2,3.4,5.2,3.4V127.4z"/>
		</g>
		<path class="st2" d="M164.2,50.4c-12.6-9.6-39.7-15.3-62.7,0.1C82.3,63.5,79.9,86.8,79.9,86.8s0,37.1,0,56.7
			c0,3.7,33.9,42,41.6,42H143c7.6,0,40.8-38.3,40.8-42c0-19.6,0-58.8,0-58.8S182.2,64.1,164.2,50.4z"/>
		<path class="st4" d="M96.7,48.8c1.3-10.1,9.6-20.7,36.9-22.2c27.4-1.5,32.3,20.9,46.7,29.4c14.5,8.5,10.5,27.3,3.4,36.8
			c0,0-0.1-23.4-21.9-24.5c-23.2-1.1-31.8,9.7-49.2,4.9C101.9,70.2,95.2,60.8,96.7,48.8z"/>
		<path class="st4" d="M101.3,44.9c0,0-22.5,7-26,28.9c-3.5,21.9,4.6,34,4.6,34s5.9-35,31.8-38.4C111.7,69.4,122,54.5,101.3,44.9z"
			/>
		<g>
			<path class="st4" d="M86.3,73.3v36.7c0,16.3-6.5,22.6-6.5,22.6v-28.8C79.9,92.3,82.3,81.7,86.3,73.3z"/>
		</g>
		<g>
			<path class="st4" d="M177.3,64v46.1c0,16.3,6.5,22.6,6.5,22.6V94.6C183.8,83,181.3,72.4,177.3,64z"/>
		</g>
		<path class="st4" d="M177.3,111.9c0,0,0,7.5,0,24.9c0,10.6-11.1,18.9-28.5,36.3c-3.4,3.4-11.4,3.6-16.3,3.7
			c-5,0-14.2-0.3-17.5-3.7c-17.4-17.4-28.5-25.7-28.5-36.3c0-17.3,0-24.9,0-24.9s-2.8,4.5-6.5,10.9v20.8c0,3.7,33.2,42,40.8,42h11.5
			h0.9h10c7.6,0,40.8-38.3,40.8-42v-20.8C180.1,116.4,177.3,111.9,177.3,111.9z"/>
		<path class="st4" d="M154.3,147.8c-13.4-10.1-21.3-2.2-21.3-2.2s-7.9-8-21.3,2.2c-8.5,6.4-10,14.2-10,14.2l3.6,4.4
			c0,0,5.5-21.4,27.7-14c21.2-6,27.7,14,27.7,14l3.6-4.4C164.4,161.9,162.8,154.2,154.3,147.8z"/>
		<g>
			<path class="st4" d="M153.2,155.6c0,0,4.5,10.2-4.4,17.4l14.6-9.8L153.2,155.6z"/>
			<path class="st4" d="M111.9,155.6c0,0-5,11,4,18.2l-14.2-10.6L111.9,155.6z"/>
		</g>
		<g class="st5">
			<g>
				<path class="st6" d="M114.9,71.5c-3.3-1-6.3-2.9-8.9-5.4c-1.3-1.2-2.4-2.6-3.4-4.1c-0.9-1.5-1.7-3.2-2.1-5
					c-0.4-1.8-0.6-3.6-0.6-5.4c0.1-1.8,0.4-3.6,0.9-5.3c1-3.4,2.7-6.5,4.9-9.2c-1.4,3.2-2.6,6.3-3.2,9.6c-0.6,3.2-0.7,6.6,0.2,9.7
					c0.8,3.1,2.5,6,4.6,8.5C109.4,67.5,112,69.7,114.9,71.5z"/>
			</g>
			<g>
				<path class="st6" d="M149.9,66.5c-1.1-2.4-1.6-5.1-1.8-7.7c-0.2-2.7,0-5.4,0.8-8.1c0.4-1.3,0.9-2.6,1.7-3.8
					c0.7-1.2,1.6-2.3,2.6-3.2c2-1.9,4.5-3.1,7.1-3.6c-2.3,1.3-4.3,2.9-5.9,4.8c-1.6,1.9-2.7,4.1-3.4,6.5c-0.7,2.4-1.1,4.9-1.2,7.4
					C149.6,61.3,149.7,63.8,149.9,66.5z"/>
			</g>
			<g>
				<path class="st6" d="M146.2,67.4c-1.5-2.7-2.3-5.7-2.8-8.7c-0.5-3-0.5-6.2,0.1-9.3c0.3-1.5,0.7-3.1,1.3-4.5
					c0.6-1.4,1.3-2.9,2.2-4.1c1.7-2.6,4.1-4.8,6.7-6.3c-2.1,2.2-3.9,4.6-5.3,7.1c-1.3,2.6-2.3,5.3-2.8,8.2c-0.5,2.8-0.6,5.8-0.5,8.7
					C145.2,61.5,145.6,64.5,146.2,67.4z"/>
			</g>
			<g>
				<path class="st6" d="M142,68.1c-1.6-2.9-2.7-6.1-3.5-9.3c-0.8-3.2-1.1-6.6-1-10c0.1-1.7,0.2-3.4,0.6-5c0.3-1.7,0.8-3.3,1.4-4.9
					c1.2-3.1,3.1-6,5.6-8.2c-1.7,2.8-3.1,5.7-4,8.8c-0.9,3.1-1.3,6.2-1.4,9.4c-0.1,3.2,0.1,6.4,0.5,9.6
					C140.6,61.7,141.2,64.9,142,68.1z"/>
			</g>
			<g>
				<path class="st6" d="M128.4,71.5c-2.7-2.6-4.8-5.8-6.4-9.2c-1.6-3.4-2.6-7.2-2.9-11c-0.1-1.9-0.1-3.8,0.1-5.7
					c0.2-1.9,0.6-3.8,1.2-5.6c1.1-3.6,3-7,5.3-9.9c-1.6,3.4-2.9,6.8-3.7,10.3c-0.8,3.5-1.1,7.1-0.8,10.7c0.3,3.6,1.1,7.1,2.3,10.5
					C124.8,65,126.4,68.4,128.4,71.5z"/>
			</g>
			<g>
				<path class="st6" d="M132.3,70.8c-2.4-2.8-4.1-6.1-5.2-9.6c-1.2-3.5-1.8-7.2-1.8-10.9c0-1.9,0.2-3.7,0.5-5.5
					c0.4-1.8,0.8-3.6,1.5-5.3c1.3-3.5,3.2-6.7,5.5-9.4c-1.6,3.3-3,6.5-3.9,9.9c-0.9,3.4-1.5,6.9-1.5,10.4c-0.1,3.5,0.4,7,1.2,10.4
					C129.5,64.2,130.7,67.6,132.3,70.8z"/>
			</g>
			<g>
				<path class="st6" d="M118.6,72c-3.1-1.8-5.8-4.2-8.1-7.1c-2.3-2.9-4-6.2-4.9-9.8c-0.4-1.8-0.6-3.7-0.6-5.5
					c0-1.9,0.3-3.7,0.8-5.5c0.9-3.6,2.7-6.8,5-9.6c-1.5,3.2-2.8,6.5-3.3,9.9c-0.6,3.4-0.5,6.8,0.3,10.1c0.8,3.3,2.3,6.4,4.1,9.3
					C113.8,66.8,116.1,69.5,118.6,72z"/>
			</g>
			<g>
				<path class="st6" d="M136.9,69.2c-2.1-2.9-3.4-6.3-4.2-9.8c-0.8-3.5-1.1-7.1-0.8-10.7c0.2-1.8,0.4-3.6,0.8-5.3
					c0.4-1.7,0.9-3.5,1.6-5.1c1.3-3.3,3.1-6.4,5.4-9.2c-1.5,3.2-2.8,6.4-3.8,9.7c-1,3.3-1.6,6.7-1.9,10.1c-0.3,3.4-0.2,6.8,0.3,10.2
					C134.9,62.5,135.7,65.9,136.9,69.2z"/>
			</g>
			<g>
				<path class="st6" d="M124.3,71.5c-3.3-1.5-6.1-4.2-8.1-7.3c-1-1.6-1.8-3.3-2.4-5c-0.6-1.8-1-3.6-1.2-5.5c-0.2-1.9-0.2-3.7,0-5.6
					c0.2-1.8,0.5-3.7,0.9-5.4c0.9-3.6,2.3-6.9,4.2-10.1c-1,3.5-2,6.9-2.5,10.4c-0.6,3.5-0.8,7-0.4,10.4c0.3,3.4,1.3,6.8,2.9,9.9
					C119.3,66.4,121.5,69.2,124.3,71.5z"/>
			</g>
			<g>
				<path class="st6" d="M99.9,69.2c-2.9-1.9-5.6-3.7-8.5-5.1c-1.5-0.7-2.9-1.3-4.5-1.8c-1.6-0.5-3.2-0.8-4.9-1.1
					c1.6-0.6,3.5-0.8,5.2-0.6c1.8,0.2,3.5,0.7,5.1,1.5c1.6,0.8,3.1,1.8,4.4,3C98,66.3,99.1,67.6,99.9,69.2z"/>
			</g>
			<g>
				<path class="st6" d="M97.4,71.5c-1.4-0.9-2.7-1.6-4.1-2.2c-1.4-0.6-2.8-1.2-4.2-1.6c-1.4-0.4-2.9-0.8-4.4-1.1
					c-1.5-0.3-3.1-0.5-4.7-0.8c1.5-0.6,3.2-0.9,4.8-0.9c1.7,0,3.3,0.2,4.9,0.7c1.6,0.5,3.1,1.2,4.5,2.2C95.4,68.8,96.6,70,97.4,71.5
					z"/>
			</g>
			<g>
				<path class="st6" d="M95,73.3c-1.6-0.5-3-0.9-4.5-1.2c-1.5-0.3-3-0.6-4.4-0.7c-1.5-0.1-3-0.1-4.5,0c-1.5,0.1-3,0.3-4.6,0.6
					c2.5-2.1,6-3,9.3-2.7c1.7,0.1,3.3,0.6,4.8,1.2C92.6,71.2,94,72.1,95,73.3z"/>
			</g>
			<g>
				<path class="st6" d="M92.5,76.4c-1.4-0.1-2.7-0.2-4-0.2c-1.3,0-2.5,0-3.8,0.1c-1.3,0.1-2.5,0.2-3.8,0.4c-1.3,0.2-2.6,0.4-4,0.5
					c1-1,2.2-1.7,3.5-2.2c1.3-0.5,2.7-0.8,4.1-0.9c1.4-0.1,2.8,0.1,4.2,0.4C90.1,74.8,91.4,75.4,92.5,76.4z"/>
			</g>
			<g>
				<path class="st6" d="M91,79.5c-2.6,0.3-4.9,0.6-7.2,1.2c-1.1,0.3-2.2,0.6-3.4,1c-1.1,0.4-2.2,0.9-3.4,1.5c1.2-2.4,3.7-4,6.3-4.6
					c1.3-0.3,2.7-0.4,4-0.3C88.5,78.5,89.8,78.8,91,79.5z"/>
			</g>
			<g>
				<path class="st6" d="M101.8,67c-0.8-1.3-1.6-2.6-2.4-3.7c-0.8-1.1-1.8-2.2-2.8-3.2c-1-1-2.1-1.8-3.3-2.6
					c-1.2-0.8-2.5-1.4-3.9-2.1c3.1-0.4,6.4,0.9,8.7,3.1c1.2,1.1,2.1,2.4,2.7,3.9C101.5,63.9,101.9,65.5,101.8,67z"/>
			</g>
			<g>
				<path class="st6" d="M156.9,65.7c-1.2-1.8-2-4-2.4-6.2c-0.4-2.2-0.4-4.6,0.3-6.8c0.6-2.2,1.8-4.3,3.5-5.9
					c1.7-1.6,3.7-2.7,5.8-3.3c-1.7,1.4-3.3,2.8-4.6,4.4c-1.3,1.6-2.1,3.4-2.7,5.4c-0.5,1.9-0.7,4-0.7,6.1
					C156.2,61.4,156.5,63.5,156.9,65.7z"/>
			</g>
			<g>
				<path class="st6" d="M162.7,65.7c-0.9-1.5-1.3-3.2-1.6-4.9c-0.3-1.7-0.3-3.5,0-5.3c0.3-1.8,0.9-3.5,1.9-5c1-1.5,2.5-2.7,4.1-3.3
					c-1.2,1.3-2,2.6-2.6,4.1c-0.6,1.4-1,3-1.2,4.5C162.7,59,162.8,62.2,162.7,65.7z"/>
			</g>
			<g>
				<path class="st6" d="M167.6,65.7c-0.8-1.1-1.3-2.5-1.5-3.8c-0.3-1.4-0.3-2.8,0-4.2c0.3-1.4,1-2.8,2.1-3.8c1.1-1,2.5-1.6,3.9-1.7
					c-1.1,0.9-2,1.8-2.6,2.8c-0.6,1-1,2.1-1.3,3.2c-0.3,1.2-0.4,2.4-0.5,3.6C167.7,63,167.7,64.3,167.6,65.7z"/>
			</g>
			<g>
				<path class="st6" d="M172.1,67.4c-0.8-0.9-1.3-2-1.6-3.1c-0.3-1.2-0.3-2.4,0.1-3.7c0.3-1.2,1.1-2.4,2.1-3.1
					c1-0.7,2.2-1.1,3.4-1.1c-0.9,0.8-1.6,1.5-2.2,2.3c-0.6,0.8-1,1.6-1.2,2.5c-0.3,0.9-0.4,1.9-0.4,2.9
					C172.1,65.2,172.1,66.3,172.1,67.4z"/>
			</g>
			<g>
				<path class="st6" d="M175.2,69.2c-0.5-1-0.6-2.1-0.5-3.2c0.1-1.1,0.5-2.2,1.2-3.1c0.6-0.9,1.4-1.7,2.4-2.3c0.9-0.6,2-0.9,3.1-1
					c-0.7,0.9-1.4,1.6-2,2.3c-0.6,0.7-1.2,1.4-1.6,2.2c-0.5,0.7-0.9,1.5-1.3,2.4C176,67.3,175.6,68.2,175.2,69.2z"/>
			</g>
			<g>
				<path class="st6" d="M178.3,73c-0.5-1.1-0.6-2.4-0.4-3.6c0.2-1.2,0.7-2.4,1.6-3.4c0.8-1,1.9-1.7,3-2.2c1.2-0.4,2.4-0.6,3.6-0.4
					c-1,0.7-1.9,1.3-2.8,1.9c-0.8,0.6-1.5,1.3-2.2,2.1C179.9,68.9,179,70.7,178.3,73z"/>
			</g>
			<g>
				<path class="st6" d="M180,77.5c-0.3-1.1-0.2-2.3,0.2-3.4c0.3-1.1,0.9-2.1,1.7-3c0.7-0.9,1.7-1.6,2.7-2.1c1-0.5,2.1-0.8,3.2-0.8
					c-0.8,0.8-1.6,1.5-2.3,2.2c-0.7,0.7-1.4,1.4-2,2.1c-0.6,0.7-1.2,1.5-1.8,2.3C181.1,75.7,180.6,76.5,180,77.5z"/>
			</g>
		</g>
		<g>
			<g>
				
					<linearGradient id="SVGID_00000089555199312112654810000004231881938745573310_" gradientUnits="userSpaceOnUse" x1="131.932" y1="103.2035" x2="132.018" y2="108.0224">
					<stop  offset="0" style="stop-color:#3C3C3B"/>
					<stop  offset="0.5146" style="stop-color:#2E2E2D"/>
					<stop  offset="1" style="stop-color:#1D1D1B"/>
				</linearGradient>
				<path style="fill:url(#SVGID_00000089555199312112654810000004231881938745573310_);" d="M132,103.3c-0.1,0-0.2,0-0.3,0l-0.1,0
					l-0.1,0c-0.1,0-0.2,0-0.3,0c-1.5,0.1-3.4,0.2-5.5,0.4v4.5c2.3-0.2,4.3-0.3,5.8-0.4c0,0,0.1,0,0.1,0c0,0,0,0,0.1,0
					c0,0,0.1,0,0.1,0c1.7,0.1,4,0.2,6.6,0.5v-4.5C135.8,103.5,133.6,103.3,132,103.3z"/>
			</g>
			<path class="st8" d="M160.8,98.3L160.8,98.3c-0.1,0-0.1,0-0.2,0c-0.1,0-0.1,0-0.2,0v0c-7.1,0.2-16.4,1.5-25.2,4.7
				c0,0,2.9,8.7,4.4,15.2c1.5,6.5,7.3,10.3,12.3,10.3h8.5h0.3h8.5c5,0,10.9-3.8,12.3-10.3c1.5-6.5,4.4-15.2,4.4-15.2
				C177.2,99.8,167.9,98.6,160.8,98.3z"/>
			<path class="st8" d="M102.4,98.3L102.4,98.3c-0.1,0-0.1,0-0.2,0c-0.1,0-0.1,0-0.2,0v0c-7.1,0.2-16.4,1.5-25.2,4.7
				c0,0,2.9,8.7,4.4,15.2c1.5,6.5,7.3,10.3,12.3,10.3h8.5h0.3h8.5c5,0,10.9-3.8,12.3-10.3c1.5-6.5,4.4-15.2,4.4-15.2
				C118.8,99.8,109.5,98.6,102.4,98.3z"/>
			<defs>
				<filter id="Adobe_OpacityMaskFilter" filterUnits="userSpaceOnUse" x="80.7" y="104.2" width="43.1" height="10.9">
					<feFlood  style="flood-color:white;flood-opacity:1" result="back"/>
					<feBlend  in="SourceGraphic" in2="back" mode="normal"/>
				</filter>
			</defs>
			
				<mask maskUnits="userSpaceOnUse" x="80.7" y="104.2" width="43.1" height="10.9" id="SVGID_00000050640976366355937420000002103989436850901922_">
				<g class="st9">
					<defs>
						
							<filter id="Adobe_OpacityMaskFilter_00000065061593087728410340000012209883021893235844_" filterUnits="userSpaceOnUse" x="80.7" y="104.2" width="43.1" height="10.9">
							<feFlood  style="flood-color:white;flood-opacity:1" result="back"/>
							<feBlend  in="SourceGraphic" in2="back" mode="normal"/>
						</filter>
					</defs>
					
						<mask maskUnits="userSpaceOnUse" x="80.7" y="104.2" width="43.1" height="10.9" id="SVGID_00000050640976366355937420000002103989436850901922_">
						<g style="filter:url(#Adobe_OpacityMaskFilter_00000065061593087728410340000012209883021893235844_);">
						</g>
					</mask>
					
						<linearGradient id="SVGID_00000169529502675884381880000002143435684898927530_" gradientUnits="userSpaceOnUse" x1="102.0916" y1="104.2414" x2="102.2637" y2="111.728">
						<stop  offset="0" style="stop-color:#FFFFFF"/>
						<stop  offset="0.1572" style="stop-color:#DDDDDD"/>
						<stop  offset="0.5063" style="stop-color:#858585"/>
						<stop  offset="1" style="stop-color:#000000"/>
					</linearGradient>
					
						<path style="mask:url(#SVGID_00000050640976366355937420000002103989436850901922_);fill:url(#SVGID_00000169529502675884381880000002143435684898927530_);" d="
						M98.5,112.4c2-0.2,3.6-0.3,3.6-0.3c0,0,0,0,0,0c0,0,0.1,0,0.1,0c0,0,0.1,0,0.1,0c0,0,1.6,0.1,3.6,0.3l13.5,2.5
						c1.9,0.5,3.7-0.8,4-2.7c0,0,0.2-1.4,0.3-2.3c0.1-0.9-1.3-2-3.3-2.5l-14.6-2.8c-2-0.2-3.6-0.3-3.6-0.3c0,0,0,0,0,0
						c0,0-0.1,0-0.1,0c0,0-0.1,0-0.1,0c0,0-1.6,0.2-3.6,0.3l-14.6,2.8c-1.9,0.5-3.4,1.6-3.3,2.5c0.1,0.9,2.4,5.5,4.3,5.1L98.5,112.4
						z"/>
				</g>
			</mask>
			
				<linearGradient id="SVGID_00000077308623385447694940000015974567150367303080_" gradientUnits="userSpaceOnUse" x1="102.0916" y1="104.2414" x2="102.2637" y2="111.728">
				<stop  offset="0" style="stop-color:#FFFFFF"/>
				<stop  offset="1" style="stop-color:#FFFFFF"/>
			</linearGradient>
			<path style="fill:url(#SVGID_00000077308623385447694940000015974567150367303080_);" d="M98.5,112.4c2-0.2,3.6-0.3,3.6-0.3
				c0,0,0,0,0,0c0,0,0.1,0,0.1,0c0,0,0.1,0,0.1,0c0,0,1.6,0.1,3.6,0.3l13.5,2.5c1.9,0.5,3.7-0.8,4-2.7c0,0,0.2-1.4,0.3-2.3
				c0.1-0.9-1.3-2-3.3-2.5l-14.6-2.8c-2-0.2-3.6-0.3-3.6-0.3c0,0,0,0,0,0c0,0-0.1,0-0.1,0c0,0-0.1,0-0.1,0c0,0-1.6,0.2-3.6,0.3
				l-14.6,2.8c-1.9,0.5-3.4,1.6-3.3,2.5c0.1,0.9,2.4,5.5,4.3,5.1L98.5,112.4z"/>
			<defs>
				
					<filter id="Adobe_OpacityMaskFilter_00000180368816139938117500000016896084397587774345_" filterUnits="userSpaceOnUse" x="139.1" y="104.2" width="43.1" height="10.9">
					<feFlood  style="flood-color:white;flood-opacity:1" result="back"/>
					<feBlend  in="SourceGraphic" in2="back" mode="normal"/>
				</filter>
			</defs>
			
				<mask maskUnits="userSpaceOnUse" x="139.1" y="104.2" width="43.1" height="10.9" id="SVGID_00000169534356275802340150000014206380813079175815_">
				<g style="filter:url(#Adobe_OpacityMaskFilter_00000180368816139938117500000016896084397587774345_);">
					<defs>
						
							<filter id="Adobe_OpacityMaskFilter_00000144338480685631341040000001194131360220719504_" filterUnits="userSpaceOnUse" x="139.1" y="104.2" width="43.1" height="10.9">
							<feFlood  style="flood-color:white;flood-opacity:1" result="back"/>
							<feBlend  in="SourceGraphic" in2="back" mode="normal"/>
						</filter>
					</defs>
					
						<mask maskUnits="userSpaceOnUse" x="139.1" y="104.2" width="43.1" height="10.9" id="SVGID_00000169534356275802340150000014206380813079175815_">
						<g style="filter:url(#Adobe_OpacityMaskFilter_00000144338480685631341040000001194131360220719504_);">
						</g>
					</mask>
					
						<linearGradient id="SVGID_00000149362857344535282510000006319412598620992396_" gradientUnits="userSpaceOnUse" x1="160.4715" y1="104.1558" x2="160.7297" y2="111.9006">
						<stop  offset="0" style="stop-color:#FFFFFF"/>
						<stop  offset="0.143" style="stop-color:#D9D9D9"/>
						<stop  offset="0.7404" style="stop-color:#3E3E3E"/>
						<stop  offset="1" style="stop-color:#000000"/>
					</linearGradient>
					
						<path style="mask:url(#SVGID_00000169534356275802340150000014206380813079175815_);fill:url(#SVGID_00000149362857344535282510000006319412598620992396_);" d="
						M156.9,112.4c2-0.2,3.6-0.3,3.6-0.3c0,0,0,0,0,0c0,0,0.1,0,0.1,0c0,0,0.1,0,0.1,0c0,0,1.6,0.1,3.6,0.3l13.5,2.5
						c1.9,0.5,3.7-0.8,4-2.7c0,0,0.2-1.4,0.3-2.3c0.1-0.9-1.3-2-3.3-2.5l-14.6-2.8c-2-0.2-3.6-0.3-3.6-0.3c0,0,0,0,0,0
						c0,0-0.1,0-0.1,0c0,0-0.1,0-0.1,0c0,0-1.6,0.2-3.6,0.3l-14.6,2.8c-1.9,0.5-3.4,1.6-3.3,2.5c0.1,0.9,2.4,5.5,4.3,5.1
						L156.9,112.4z"/>
				</g>
			</mask>
			
				<linearGradient id="SVGID_00000099620347692718754520000017664306703775360186_" gradientUnits="userSpaceOnUse" x1="160.4715" y1="104.1558" x2="160.7297" y2="111.9006">
				<stop  offset="0" style="stop-color:#FFFFFF"/>
				<stop  offset="1" style="stop-color:#FFFFFF"/>
			</linearGradient>
			<path style="fill:url(#SVGID_00000099620347692718754520000017664306703775360186_);" d="M156.9,112.4c2-0.2,3.6-0.3,3.6-0.3
				c0,0,0,0,0,0c0,0,0.1,0,0.1,0c0,0,0.1,0,0.1,0c0,0,1.6,0.1,3.6,0.3l13.5,2.5c1.9,0.5,3.7-0.8,4-2.7c0,0,0.2-1.4,0.3-2.3
				c0.1-0.9-1.3-2-3.3-2.5l-14.6-2.8c-2-0.2-3.6-0.3-3.6-0.3c0,0,0,0,0,0c0,0-0.1,0-0.1,0c0,0-0.1,0-0.1,0c0,0-1.6,0.2-3.6,0.3
				l-14.6,2.8c-1.9,0.5-3.4,1.6-3.3,2.5c0.1,0.9,2.4,5.5,4.3,5.1L156.9,112.4z"/>
			<g>
				
					<linearGradient id="SVGID_00000013171597712434745780000012802850304849173409_" gradientUnits="userSpaceOnUse" x1="75.6187" y1="104.0088" x2="128.7422" y2="104.0088">
					<stop  offset="0" style="stop-color:#3C3C3B"/>
					<stop  offset="0.5146" style="stop-color:#2E2E2D"/>
					<stop  offset="1" style="stop-color:#1D1D1B"/>
				</linearGradient>
				<path style="fill:url(#SVGID_00000013171597712434745780000012802850304849173409_);" d="M126.7,109.6h-1.2
					c0.4-1.2,0.7-2.4,1.2-3.9c-6.5-2.2-15.7-4.1-24.3-4.4c0,0-0.2,0-0.2,0c-5,0.2-14.2,0.9-24.3,4.4c0.5,1.3,0.8,2.8,1.2,4
					c0,0-1.5-0.3-2-1.7c-0.5-1.4-0.9-2.3-1.3-3.3c-0.3-0.6,0-1.4,0.7-1.6c10.3-3.7,20.3-4.6,25.5-4.8c0.1,0,0.7,0,0.8,0
					c5.2,0.2,15.2,1,25.5,4.8c0.6,0.2,0.8,0.8,0.6,1.4C128.4,105.3,127.6,107.4,126.7,109.6z"/>
			</g>
			<g>
				
					<linearGradient id="SVGID_00000114062937802047884910000006744542374242401665_" gradientUnits="userSpaceOnUse" x1="160.1553" y1="98.4981" x2="160.7291" y2="104.9233">
					<stop  offset="0" style="stop-color:#3C3C3B"/>
					<stop  offset="0.5146" style="stop-color:#2E2E2D"/>
					<stop  offset="1" style="stop-color:#1D1D1B"/>
				</linearGradient>
				<path style="fill:url(#SVGID_00000114062937802047884910000006744542374242401665_);" d="M136.1,109.6h1.2
					c-0.4-1.2-0.7-2.4-1.2-3.9c6.5-2.2,15.7-4.1,24.3-4.4c0,0,0.2,0,0.2,0c5,0.2,14.2,0.9,24.3,4.4c-0.5,1.3-0.8,2.8-1.2,4
					c0,0,1.5-0.3,2-1.7c0.5-1.4,0.9-2.3,1.3-3.3c0.3-0.6,0-1.4-0.7-1.6c-10.3-3.7-20.3-4.6-25.5-4.8c-0.1,0-0.7,0-0.8,0
					c-5.2,0.2-15.2,1-25.5,4.8c-0.6,0.2-0.8,0.8-0.6,1.4C134.4,105.3,135.3,107.4,136.1,109.6z"/>
			</g>
			<g>
				
					<linearGradient id="SVGID_00000007426187889498838090000006422940589380340366_" gradientUnits="userSpaceOnUse" x1="74.6744" y1="102.858" x2="74.789" y2="108.2791">
					<stop  offset="0" style="stop-color:#3C3C3B"/>
					<stop  offset="0.5146" style="stop-color:#2E2E2D"/>
					<stop  offset="1" style="stop-color:#1D1D1B"/>
				</linearGradient>
				<path style="fill:url(#SVGID_00000007426187889498838090000006422940589380340366_);" d="M79,102.8h-7.9c-0.4,0-0.7,0.3-0.7,0.7
					v4.3c0,0.4,0.3,0.7,0.7,0.7H79V102.8z"/>
				<g>
					<path class="st6" d="M75.4,105.6c0,1.1-0.9,2-2,2c-1.1,0-2-0.9-2-2c0-1.1,0.9-2,2-2C74.5,103.6,75.4,104.5,75.4,105.6z"/>
					<path class="st20" d="M75.2,105.6c0,1-0.8,1.8-1.8,1.8c-1,0-1.8-0.8-1.8-1.8c0-1,0.8-1.8,1.8-1.8
						C74.4,103.8,75.2,104.6,75.2,105.6z"/>
					<path class="st21" d="M74.3,105.6c0,0.5-0.4,0.9-0.9,0.9c-0.5,0-0.9-0.4-0.9-0.9c0-0.5,0.4-0.9,0.9-0.9
						C73.9,104.7,74.3,105.1,74.3,105.6z"/>
					<path class="st22" d="M73.8,105.6c0,0.3-0.2,0.5-0.5,0.5c-0.3,0-0.5-0.2-0.5-0.5c0-0.3,0.2-0.5,0.5-0.5
						C73.6,105.1,73.8,105.3,73.8,105.6z"/>
					<path class="st23" d="M74.5,104.6c0,0.3-0.5,0.6-1.1,0.6c-0.6,0-1.1-0.3-1.1-0.6c0-0.3,0.5-0.6,1.1-0.6
						C74,104,74.5,104.3,74.5,104.6z"/>
					<path class="st24" d="M73.3,105.3c0.3,0,0.5-0.1,0.7-0.2c-0.2-0.2-0.4-0.4-0.7-0.4c-0.3,0-0.6,0.2-0.7,0.4
						C72.8,105.2,73.1,105.3,73.3,105.3z"/>
					<path class="st25" d="M73,105.2c0.1,0,0.2,0,0.3,0c0.1,0,0.2,0,0.3,0c-0.1-0.1-0.2-0.1-0.3-0.1C73.2,105.1,73.1,105.2,73,105.2
						z"/>
				</g>
				<g>
					<g>
						<path class="st21" d="M77.8,104.1c0,0.3-0.2,0.5-0.5,0.5h-1c-0.3,0-0.5-0.2-0.5-0.5l0,0c0-0.3,0.2-0.5,0.5-0.5h1
							C77.6,103.6,77.8,103.8,77.8,104.1L77.8,104.1z"/>
						<path class="st21" d="M77.8,105.6c0,0.3-0.2,0.5-0.5,0.5h-1c-0.3,0-0.5-0.2-0.5-0.5l0,0c0-0.3,0.2-0.5,0.5-0.5h1
							C77.6,105.1,77.8,105.4,77.8,105.6L77.8,105.6z"/>
						<path class="st21" d="M77.8,107.2c0,0.3-0.2,0.5-0.5,0.5h-1c-0.3,0-0.5-0.2-0.5-0.5l0,0c0-0.3,0.2-0.5,0.5-0.5h1
							C77.6,106.7,77.8,106.9,77.8,107.2L77.8,107.2z"/>
					</g>
					<path class="st23" d="M77.6,103.9c0,0.1-0.1,0.1-0.1,0.1h-1.1c-0.1,0-0.1-0.1-0.1-0.1l0,0c0-0.1,0.1-0.1,0.1-0.1h1.1
						C77.5,103.8,77.6,103.8,77.6,103.9L77.6,103.9z"/>
					<path class="st23" d="M77.6,105.5c0,0.1-0.1,0.1-0.1,0.1h-1.1c-0.1,0-0.1-0.1-0.1-0.1l0,0c0-0.1,0.1-0.1,0.1-0.1h1.1
						C77.5,105.3,77.6,105.4,77.6,105.5L77.6,105.5z"/>
					<path class="st23" d="M77.6,107c0,0.1-0.1,0.1-0.1,0.1h-1.1c-0.1,0-0.1-0.1-0.1-0.1l0,0c0-0.1,0.1-0.1,0.1-0.1h1.1
						C77.5,106.9,77.6,106.9,77.6,107L77.6,107z"/>
				</g>
			</g>
			<rect x="79" y="102.8" class="st26" width="27.5" height="15.1"/>
			<g>
				<rect x="81.4" y="105.3" class="st27" width="22.9" height="1.2"/>
				<rect x="81.4" y="107.6" class="st27" width="22.9" height="1.2"/>
				<rect x="81.4" y="109.9" class="st27" width="22.9" height="1.2"/>
				<rect x="81.4" y="112.2" class="st27" width="22.9" height="1.2"/>
				<rect x="81.4" y="114.5" class="st27" width="13.9" height="1.2"/>
			</g>
		</g>
	</g>
</g>
</svg>
